<svg class="main-svg" xmlns="http://www.w3.org/2000/svg" xmlns:xlink="http://www.w3.org/1999/xlink" width="2200" height="406" style="" viewBox="0 0 1100 203"><rect x="0" y="0" width="1100" height="203" style="fill: rgb(255, 255, 255); fill-opacity: 1;"/><defs id="defs-9fe9e9"><g class="clips"><clipPath id="clip9fe9e9xyplot" class="plotclip"><rect width="1012" height="42.375"/></clipPath><clipPath id="clip9fe9e9x2y2plot" class="plotclip"><rect width="1012" height="42.375"/></clipPath><clipPath class="axesclip" id="clip9fe9e9x"><rect x="73" y="0" width="1012" height="203"/></clipPath><clipPath class="axesclip" id="clip9fe9e9y"><rect x="0" y="50" width="1100" height="42.375"/></clipPath><clipPath class="axesclip" id="clip9fe9e9xy"><rect x="73" y="50" width="1012" height="42.375"/></clipPath><clipPath class="axesclip" id="clip9fe9e9y2"><rect x="0" y="120.625" width="1100" height="42.375"/></clipPath><clipPath class="axesclip" id="clip9fe9e9xy2"><rect x="73" y="120.625" width="1012" height="42.375"/></clipPath><clipPath class="axesclip" id="clip9fe9e9x2"><rect x="73" y="0" width="1012" height="203"/></clipPath><clipPath class="axesclip" id="clip9fe9e9x2y"><rect x="73" y="50" width="1012" height="42.375"/></clipPath><clipPath class="axesclip" id="clip9fe9e9x2y2"><rect x="73" y="120.625" width="1012" height="42.375"/></clipPath></g><g class="gradients"/><g class="patterns"/></defs><g class="bglayer"/><g class="layer-below"><g class="imagelayer"/><g class="shapelayer"/></g><g class="cartesianlayer"><g class="subplot xy"><g class="layer-subplot"><g class="shapelayer"/><g class="imagelayer"/></g><g class="minor-gridlayer"><g class="x"/><g class="y"/></g><g class="gridlayer"><g class="x"><path class="xgrid crisp" transform="translate(144.81,0)" d="M0,50v42.375" style="stroke: rgb(0, 0, 0); stroke-opacity: 0.1; stroke-width: 1px;"/><path class="xgrid crisp" transform="translate(278.4,0)" d="M0,50v42.375" style="stroke: rgb(0, 0, 0); stroke-opacity: 0.1; stroke-width: 1px;"/><path class="xgrid crisp" transform="translate(411.99,0)" d="M0,50v42.375" style="stroke: rgb(0, 0, 0); stroke-opacity: 0.1; stroke-width: 1px;"/><path class="xgrid crisp" transform="translate(545.5899999999999,0)" d="M0,50v42.375" style="stroke: rgb(0, 0, 0); stroke-opacity: 0.1; stroke-width: 1px;"/><path class="xgrid crisp" transform="translate(679.18,0)" d="M0,50v42.375" style="stroke: rgb(0, 0, 0); stroke-opacity: 0.1; stroke-width: 1px;"/><path class="xgrid crisp" transform="translate(812.78,0)" d="M0,50v42.375" style="stroke: rgb(0, 0, 0); stroke-opacity: 0.1; stroke-width: 1px;"/><path class="xgrid crisp" transform="translate(946.37,0)" d="M0,50v42.375" style="stroke: rgb(0, 0, 0); stroke-opacity: 0.1; stroke-width: 1px;"/></g><g class="y"/></g><g class="zerolinelayer"><path class="xzl zl crisp" transform="translate(1079.97,0)" d="M0,50v42.375" style="stroke: rgb(0, 0, 0); stroke-opacity: 0.1; stroke-width: 1px;"/><path class="yzl zl crisp" transform="translate(0,71.19)" d="M73,0h1012" style="stroke: rgb(0, 0, 0); stroke-opacity: 0.1; stroke-width: 1px;"/></g><g class="layer-between"><g class="shapelayer"/><g class="imagelayer"/></g><path class="xlines-below"/><path class="ylines-below"/><g class="overlines-below"/><g class="xaxislayer-below"/><g class="yaxislayer-below"/><g class="overaxes-below"/><g class="overplot"><g class="xy" transform="translate(73,50)" clip-path="url(#clip9fe9e9xyplot)"><g class="violinlayer mlayer"><g class="trace violins" style="opacity: 1;"><path class="violin" d="M106.39,20.84Q120.12,20.67 126.98,20.56C133.85,20.44 140.71,20.3 147.58,20.15C154.44,20 161.31,19.83 168.17,19.67C175.03,19.51 181.9,19.32 188.76,19.17C195.62,19.02 202.49,18.88 209.35,18.79C216.21,18.7 223.08,18.64 229.94,18.62C236.8,18.6 243.67,18.64 250.53,18.69C257.39,18.74 264.26,18.85 271.12,18.94C277.98,19.03 284.85,19.15 291.71,19.21C298.57,19.27 305.44,19.33 312.3,19.28C319.17,19.23 326.04,19.13 332.9,18.91C339.77,18.68 346.63,18.37 353.49,17.93C360.36,17.49 367.22,16.92 374.08,16.26C380.95,15.6 387.81,14.79 394.67,13.99C401.54,13.18 408.4,12.26 415.26,11.43C422.12,10.6 428.98,9.72 435.85,9.02C442.71,8.32 449.57,7.66 456.44,7.22C463.3,6.78 470.17,6.49 477.03,6.36C483.89,6.23 490.76,6.3 497.62,6.46C504.48,6.62 511.35,6.97 518.21,7.32C525.08,7.67 531.94,8.14 538.81,8.56C545.67,8.98 552.54,9.43 559.4,9.82C566.26,10.21 573.13,10.57 579.99,10.91C586.85,11.24 593.72,11.53 600.58,11.83C607.44,12.13 614.31,12.4 621.17,12.72C628.03,13.04 634.9,13.37 641.76,13.75C648.62,14.13 655.49,14.55 662.35,14.98C669.21,15.41 676.08,15.89 682.94,16.35C689.8,16.81 696.66,17.29 703.53,17.72C710.39,18.15 717.26,18.57 724.13,18.92C730.99,19.27 737.86,19.58 744.72,19.84Q751.58,20.1 765.31,20.46L765.31,21.91Q751.58,22.28 744.72,22.54C737.86,22.8 730.99,23.1 724.13,23.45C717.26,23.8 710.39,24.22 703.53,24.65C696.66,25.08 689.8,25.56 682.94,26.02C676.08,26.48 669.21,26.96 662.35,27.4C655.49,27.83 648.62,28.25 641.76,28.63C634.9,29 628.03,29.33 621.17,29.65C614.31,29.97 607.44,30.24 600.58,30.54C593.72,30.84 586.85,31.13 579.99,31.46C573.13,31.8 566.26,32.16 559.4,32.55C552.54,32.94 545.67,33.4 538.81,33.82C531.94,34.24 525.08,34.71 518.21,35.06C511.35,35.41 504.48,35.75 497.62,35.91C490.76,36.07 483.89,36.15 477.03,36.02C470.17,35.89 463.3,35.59 456.44,35.15C449.57,34.71 442.71,34.06 435.85,33.36C428.98,32.66 422.12,31.78 415.26,30.95C408.4,30.12 401.54,29.2 394.67,28.39C387.81,27.59 380.95,26.78 374.08,26.12C367.22,25.46 360.36,24.88 353.49,24.44C346.63,24 339.77,23.68 332.9,23.46C326.04,23.24 319.17,23.15 312.3,23.1C305.44,23.05 298.57,23.11 291.71,23.16C284.85,23.21 277.98,23.34 271.12,23.43C264.26,23.52 257.39,23.63 250.53,23.68C243.67,23.73 236.8,23.78 229.94,23.76C223.08,23.74 216.21,23.67 209.35,23.58C202.49,23.49 195.62,23.34 188.76,23.2C181.9,23.05 175.03,22.87 168.17,22.71C161.31,22.55 154.44,22.37 147.58,22.22C140.71,22.07 133.85,21.94 126.98,21.82Q120.12,21.71 106.39,21.53Z" style="vector-effect: none; stroke-width: 0px; stroke: rgb(124, 181, 236); stroke-opacity: 1; fill: rgb(153, 153, 153); fill-opacity: 1;"/><path class="box" d="M492.63,24.9V17.48M452.55,24.9V17.48H579.46V24.9ZM452.55,21.19H445.87M579.46,21.19H639.58" style="vector-effect: non-scaling-stroke; stroke-width: 0px; stroke: rgb(124, 181, 236); stroke-opacity: 1; fill: rgb(153, 153, 153); fill-opacity: 1;"/><path class="mean" d="M494.63,24.9V17.48" style="fill: none; vector-effect: non-scaling-stroke; stroke-width: 0px; stroke-dasharray: 0px, 0px; stroke: rgb(124, 181, 236); stroke-opacity: 1;"/></g></g><g class="scatterlayer mlayer"><g class="trace scatter trace6712eb" style="stroke-miterlimit: 2; opacity: 1;"><g class="fills"/><g class="errorbars"/><g class="lines"/><g class="points"><path class="point" transform="translate(579.46,21.19)" d="M2,0A2,2 0 1,1 0,-2A2,2 0 0,1 2,0Z" style="opacity: 1; stroke-width: 0px; fill: rgb(11, 121, 230); fill-opacity: 1;"/></g><g class="text"/></g><g class="trace scatter trace06748f" style="stroke-miterlimit: 2; opacity: 1;"><g class="fills"/><g class="errorbars"/><g class="lines"/><g class="points"><path class="point" transform="translate(232.12,21.19)" d="M2,0A2,2 0 1,1 0,-2A2,2 0 0,1 2,0Z" style="opacity: 1; stroke-width: 0px; fill: rgb(11, 121, 230); fill-opacity: 1;"/></g><g class="text"/></g><g class="trace scatter trace1daabb" style="stroke-miterlimit: 2; opacity: 1;"><g class="fills"/><g class="errorbars"/><g class="lines"/><g class="points"><path class="point" transform="translate(512.67,21.19)" d="M2,0A2,2 0 1,1 0,-2A2,2 0 0,1 2,0Z" style="opacity: 1; stroke-width: 0px; fill: rgb(11, 121, 230); fill-opacity: 1;"/></g><g class="text"/></g><g class="trace scatter trace1ca1ee" style="stroke-miterlimit: 2; opacity: 1;"><g class="fills"/><g class="errorbars"/><g class="lines"/><g class="points"><path class="point" transform="translate(512.67,21.19)" d="M2,0A2,2 0 1,1 0,-2A2,2 0 0,1 2,0Z" style="opacity: 1; stroke-width: 0px; fill: rgb(11, 121, 230); fill-opacity: 1;"/></g><g class="text"/></g><g class="trace scatter trace48bf00" style="stroke-miterlimit: 2; opacity: 1;"><g class="fills"/><g class="errorbars"/><g class="lines"/><g class="points"><path class="point" transform="translate(459.23,21.19)" d="M2,0A2,2 0 1,1 0,-2A2,2 0 0,1 2,0Z" style="opacity: 1; stroke-width: 0px; fill: rgb(11, 121, 230); fill-opacity: 1;"/></g><g class="text"/></g><g class="trace scatter traceb39c84" style="stroke-miterlimit: 2; opacity: 1;"><g class="fills"/><g class="errorbars"/><g class="lines"/><g class="points"><path class="point" transform="translate(445.87,21.19)" d="M2,0A2,2 0 1,1 0,-2A2,2 0 0,1 2,0Z" style="opacity: 1; stroke-width: 0px; fill: rgb(11, 121, 230); fill-opacity: 1;"/></g><g class="text"/></g><g class="trace scatter tracee8ba02" style="stroke-miterlimit: 2; opacity: 1;"><g class="fills"/><g class="errorbars"/><g class="lines"/><g class="points"><path class="point" transform="translate(452.55,21.19)" d="M2,0A2,2 0 1,1 0,-2A2,2 0 0,1 2,0Z" style="opacity: 1; stroke-width: 0px; fill: rgb(11, 121, 230); fill-opacity: 1;"/></g><g class="text"/></g><g class="trace scatter trace1dc311" style="stroke-miterlimit: 2; opacity: 1;"><g class="fills"/><g class="errorbars"/><g class="lines"/><g class="points"><path class="point" transform="translate(472.59,21.19)" d="M2,0A2,2 0 1,1 0,-2A2,2 0 0,1 2,0Z" style="opacity: 1; stroke-width: 0px; fill: rgb(11, 121, 230); fill-opacity: 1;"/></g><g class="text"/></g><g class="trace scatter tracebb9df2" style="stroke-miterlimit: 2; opacity: 1;"><g class="fills"/><g class="errorbars"/><g class="lines"/><g class="points"><path class="point" transform="translate(639.58,21.19)" d="M2,0A2,2 0 1,1 0,-2A2,2 0 0,1 2,0Z" style="opacity: 1; stroke-width: 0px; fill: rgb(11, 121, 230); fill-opacity: 1;"/></g><g class="text"/></g><g class="trace scatter trace61ee1a" style="stroke-miterlimit: 2; opacity: 1;"><g class="fills"/><g class="errorbars"/><g class="lines"/><g class="points"><path class="point" transform="translate(639.58,21.19)" d="M2,0A2,2 0 1,1 0,-2A2,2 0 0,1 2,0Z" style="opacity: 1; stroke-width: 0px; fill: rgb(11, 121, 230); fill-opacity: 1;"/></g><g class="text"/></g></g></g></g><g class="zerolinelayer-above"/><path class="xlines-above crisp" d="M0,0" style="fill: none;"/><path class="ylines-above crisp" d="M0,0" style="fill: none;"/><g class="overlines-above"/><g class="xaxislayer-above"><g class="xtick"><text text-anchor="middle" x="0" y="102.375" transform="translate(144.81,0)" style="font-family: system-ui, -apple-system, 'Segoe UI', Roboto, 'Helvetica Neue', 'Noto Sans', 'Liberation Sans', Arial, sans-serif, 'Apple Color Emoji', 'Segoe UI Emoji', 'Segoe UI Symbol', 'Noto Color Emoji'; font-size: 9px; fill: rgb(0, 0, 0); fill-opacity: 0.5; white-space: pre;">−14</text></g><g class="xtick"><text text-anchor="middle" x="0" y="102.375" style="font-family: system-ui, -apple-system, 'Segoe UI', Roboto, 'Helvetica Neue', 'Noto Sans', 'Liberation Sans', Arial, sans-serif, 'Apple Color Emoji', 'Segoe UI Emoji', 'Segoe UI Symbol', 'Noto Color Emoji'; font-size: 9px; fill: rgb(0, 0, 0); fill-opacity: 0.5; white-space: pre;" transform="translate(278.4,0)">−12</text></g><g class="xtick"><text text-anchor="middle" x="0" y="102.375" style="font-family: system-ui, -apple-system, 'Segoe UI', Roboto, 'Helvetica Neue', 'Noto Sans', 'Liberation Sans', Arial, sans-serif, 'Apple Color Emoji', 'Segoe UI Emoji', 'Segoe UI Symbol', 'Noto Color Emoji'; font-size: 9px; fill: rgb(0, 0, 0); fill-opacity: 0.5; white-space: pre;" transform="translate(411.99,0)">−10</text></g><g class="xtick"><text text-anchor="middle" x="0" y="102.375" style="font-family: system-ui, -apple-system, 'Segoe UI', Roboto, 'Helvetica Neue', 'Noto Sans', 'Liberation Sans', Arial, sans-serif, 'Apple Color Emoji', 'Segoe UI Emoji', 'Segoe UI Symbol', 'Noto Color Emoji'; font-size: 9px; fill: rgb(0, 0, 0); fill-opacity: 0.5; white-space: pre;" transform="translate(545.5899999999999,0)">−8</text></g><g class="xtick"><text text-anchor="middle" x="0" y="102.375" style="font-family: system-ui, -apple-system, 'Segoe UI', Roboto, 'Helvetica Neue', 'Noto Sans', 'Liberation Sans', Arial, sans-serif, 'Apple Color Emoji', 'Segoe UI Emoji', 'Segoe UI Symbol', 'Noto Color Emoji'; font-size: 9px; fill: rgb(0, 0, 0); fill-opacity: 0.5; white-space: pre;" transform="translate(679.18,0)">−6</text></g><g class="xtick"><text text-anchor="middle" x="0" y="102.375" style="font-family: system-ui, -apple-system, 'Segoe UI', Roboto, 'Helvetica Neue', 'Noto Sans', 'Liberation Sans', Arial, sans-serif, 'Apple Color Emoji', 'Segoe UI Emoji', 'Segoe UI Symbol', 'Noto Color Emoji'; font-size: 9px; fill: rgb(0, 0, 0); fill-opacity: 0.5; white-space: pre;" transform="translate(812.78,0)">−4</text></g><g class="xtick"><text text-anchor="middle" x="0" y="102.375" style="font-family: system-ui, -apple-system, 'Segoe UI', Roboto, 'Helvetica Neue', 'Noto Sans', 'Liberation Sans', Arial, sans-serif, 'Apple Color Emoji', 'Segoe UI Emoji', 'Segoe UI Symbol', 'Noto Color Emoji'; font-size: 9px; fill: rgb(0, 0, 0); fill-opacity: 0.5; white-space: pre;" transform="translate(946.37,0)">−2</text></g><g class="xtick"><text text-anchor="middle" x="0" y="102.375" style="font-family: system-ui, -apple-system, 'Segoe UI', Roboto, 'Helvetica Neue', 'Noto Sans', 'Liberation Sans', Arial, sans-serif, 'Apple Color Emoji', 'Segoe UI Emoji', 'Segoe UI Symbol', 'Noto Color Emoji'; font-size: 9px; fill: rgb(0, 0, 0); fill-opacity: 0.5; white-space: pre;" transform="translate(1079.97,0)">0</text></g></g><g class="yaxislayer-above"><g class="ytick"><text text-anchor="end" x="72" y="3.15" transform="translate(0,71.19)" style="font-family: system-ui, -apple-system, 'Segoe UI', Roboto, 'Helvetica Neue', 'Noto Sans', 'Liberation Sans', Arial, sans-serif, 'Apple Color Emoji', 'Segoe UI Emoji', 'Segoe UI Symbol', 'Noto Color Emoji'; font-size: 9px; fill: rgb(0, 0, 0); fill-opacity: 0.5; white-space: pre;">Best Affinity  </text></g></g><g class="overaxes-above"/></g><g class="subplot x2y2"><g class="layer-subplot"><g class="shapelayer"/><g class="imagelayer"/></g><g class="minor-gridlayer"><g class="x2"/><g class="y2"/></g><g class="gridlayer"><g class="x2"><path class="x2grid crisp" transform="translate(189.34,0)" d="M0,120.625v42.375" style="stroke: rgb(0, 0, 0); stroke-opacity: 0.1; stroke-width: 1px;"/><path class="x2grid crisp" transform="translate(300.66999999999996,0)" d="M0,120.625v42.375" style="stroke: rgb(0, 0, 0); stroke-opacity: 0.1; stroke-width: 1px;"/><path class="x2grid crisp" transform="translate(411.99,0)" d="M0,120.625v42.375" style="stroke: rgb(0, 0, 0); stroke-opacity: 0.1; stroke-width: 1px;"/><path class="x2grid crisp" transform="translate(523.3199999999999,0)" d="M0,120.625v42.375" style="stroke: rgb(0, 0, 0); stroke-opacity: 0.1; stroke-width: 1px;"/><path class="x2grid crisp" transform="translate(634.65,0)" d="M0,120.625v42.375" style="stroke: rgb(0, 0, 0); stroke-opacity: 0.1; stroke-width: 1px;"/><path class="x2grid crisp" transform="translate(745.98,0)" d="M0,120.625v42.375" style="stroke: rgb(0, 0, 0); stroke-opacity: 0.1; stroke-width: 1px;"/><path class="x2grid crisp" transform="translate(857.31,0)" d="M0,120.625v42.375" style="stroke: rgb(0, 0, 0); stroke-opacity: 0.1; stroke-width: 1px;"/><path class="x2grid crisp" transform="translate(968.64,0)" d="M0,120.625v42.375" style="stroke: rgb(0, 0, 0); stroke-opacity: 0.1; stroke-width: 1px;"/><path class="x2grid crisp" transform="translate(1079.97,0)" d="M0,120.625v42.375" style="stroke: rgb(0, 0, 0); stroke-opacity: 0.1; stroke-width: 1px;"/></g><g class="y2"><path class="y2grid crisp" transform="translate(0,141.815)" d="M73,0h1012" style="stroke: rgb(0, 0, 0); stroke-opacity: 0.1; stroke-width: 1px;"/></g></g><g class="zerolinelayer"><path class="x2zl zl crisp" transform="translate(78.01,0)" d="M0,120.625v42.375" style="stroke: rgb(0, 0, 0); stroke-opacity: 0.1; stroke-width: 1px;"/></g><g class="layer-between"><g class="shapelayer"/><g class="imagelayer"/></g><path class="xlines-below"/><path class="ylines-below"/><g class="overlines-below"/><g class="xaxislayer-below"/><g class="yaxislayer-below"/><g class="overaxes-below"/><g class="overplot"><g class="x2y2" transform="translate(73,120.625)" clip-path="url(#clip9fe9e9x2y2plot)"><g class="violinlayer mlayer"><g class="trace violins" style="opacity: 1;"><path class="violin" d="M439.19,20.96Q440.43,20.85 441.05,20.78C441.67,20.7 442.28,20.61 442.9,20.51C443.52,20.41 444.14,20.3 444.76,20.19C445.38,20.08 445.99,19.96 446.61,19.87C447.23,19.78 447.85,19.69 448.47,19.63C449.09,19.58 449.7,19.54 450.32,19.54C450.94,19.54 451.56,19.58 452.18,19.63C452.8,19.69 453.41,19.78 454.03,19.87C454.65,19.96 455.27,20.08 455.89,20.19C456.51,20.3 457.13,20.41 457.75,20.51C458.37,20.61 458.98,20.7 459.6,20.78C460.22,20.85 460.84,20.91 461.46,20.96C462.08,21.01 462.69,21.05 463.31,21.08C463.93,21.11 464.55,21.12 465.17,21.14C465.79,21.15 466.4,21.16 467.02,21.17C467.64,21.18 468.26,21.18 468.88,21.18C469.5,21.18 470.11,21.19 470.73,21.19C471.35,21.19 471.97,21.19 472.59,21.19C473.21,21.19 473.82,21.19 474.44,21.19C475.06,21.19 475.68,21.19 476.3,21.19C476.92,21.19 477.54,21.19 478.16,21.19C478.78,21.19 479.39,21.19 480.01,21.19C480.63,21.19 481.25,21.19 481.87,21.19C482.49,21.19 483.1,21.19 483.72,21.19C484.34,21.19 484.96,21.19 485.58,21.19C486.2,21.19 486.81,21.19 487.43,21.19C488.05,21.19 488.67,21.19 489.29,21.19C489.91,21.19 490.52,21.19 491.14,21.19C491.76,21.19 492.38,21.19 493,21.19C493.62,21.19 494.23,21.19 494.85,21.19C495.47,21.19 496.09,21.19 496.71,21.19C497.33,21.19 497.95,21.19 498.57,21.19C499.19,21.19 499.8,21.19 500.42,21.19C501.04,21.19 501.66,21.19 502.28,21.19C502.9,21.19 503.51,21.19 504.13,21.19C504.75,21.19 505.37,21.19 505.99,21.19C506.61,21.19 507.22,21.19 507.84,21.19C508.46,21.19 509.08,21.19 509.7,21.19C510.32,21.19 510.93,21.19 511.55,21.19C512.17,21.19 512.79,21.19 513.41,21.19C514.03,21.19 514.64,21.19 515.26,21.19C515.88,21.19 516.5,21.19 517.12,21.19C517.74,21.19 518.36,21.19 518.98,21.19C519.6,21.19 520.21,21.19 520.83,21.19C521.45,21.19 522.07,21.19 522.69,21.19C523.31,21.19 523.92,21.19 524.54,21.19C525.16,21.19 525.78,21.19 526.4,21.19C527.02,21.19 527.63,21.19 528.25,21.19C528.87,21.19 529.49,21.19 530.11,21.19C530.73,21.19 531.34,21.19 531.96,21.19C532.58,21.19 533.2,21.19 533.82,21.19C534.44,21.19 535.06,21.19 535.68,21.19C536.3,21.19 536.91,21.19 537.53,21.19C538.15,21.19 538.77,21.19 539.39,21.19C540.01,21.19 540.62,21.19 541.24,21.19C541.86,21.19 542.48,21.19 543.1,21.19C543.72,21.19 544.33,21.19 544.95,21.19C545.57,21.19 546.19,21.19 546.81,21.19C547.43,21.19 548.04,21.19 548.66,21.19C549.28,21.19 549.9,21.19 550.52,21.19C551.14,21.19 551.75,21.19 552.37,21.19C552.99,21.19 553.61,21.19 554.23,21.19C554.85,21.19 555.47,21.19 556.09,21.19C556.71,21.19 557.32,21.19 557.94,21.19C558.56,21.19 559.18,21.19 559.8,21.19C560.42,21.19 561.03,21.19 561.65,21.19C562.27,21.19 562.89,21.19 563.51,21.19C564.13,21.19 564.74,21.19 565.36,21.19C565.98,21.19 566.6,21.19 567.22,21.19C567.84,21.19 568.45,21.19 569.07,21.19C569.69,21.19 570.31,21.19 570.93,21.19C571.55,21.19 572.16,21.19 572.78,21.19C573.4,21.19 574.02,21.19 574.64,21.19C575.26,21.19 575.88,21.19 576.5,21.19C577.12,21.19 577.73,21.19 578.35,21.19C578.97,21.19 579.59,21.19 580.21,21.19C580.83,21.19 581.44,21.19 582.06,21.19C582.68,21.19 583.3,21.19 583.92,21.19C584.54,21.19 585.15,21.19 585.77,21.19C586.39,21.19 587.01,21.19 587.63,21.19C588.25,21.19 588.86,21.19 589.48,21.19C590.1,21.19 590.72,21.19 591.34,21.19C591.96,21.19 592.57,21.19 593.19,21.19C593.81,21.19 594.43,21.19 595.05,21.19C595.67,21.19 596.29,21.19 596.91,21.19C597.53,21.19 598.14,21.19 598.76,21.19C599.38,21.19 600,21.19 600.62,21.19C601.24,21.19 601.85,21.19 602.47,21.19C603.09,21.19 603.71,21.19 604.33,21.19C604.95,21.19 605.56,21.19 606.18,21.19C606.8,21.19 607.42,21.19 608.04,21.19C608.66,21.19 609.27,21.19 609.89,21.19C610.51,21.19 611.13,21.19 611.75,21.19C612.37,21.19 612.98,21.19 613.6,21.19C614.22,21.19 614.84,21.19 615.46,21.19C616.08,21.19 616.7,21.19 617.32,21.19C617.94,21.19 618.55,21.19 619.17,21.19C619.79,21.19 620.41,21.19 621.03,21.19C621.65,21.19 622.26,21.19 622.88,21.19C623.5,21.19 624.12,21.19 624.74,21.19C625.36,21.19 625.97,21.19 626.59,21.19C627.21,21.19 627.83,21.19 628.45,21.19C629.07,21.19 629.68,21.19 630.3,21.19C630.92,21.19 631.54,21.19 632.16,21.19C632.78,21.19 633.4,21.19 634.02,21.19C634.64,21.19 635.25,21.19 635.87,21.19C636.49,21.19 637.11,21.19 637.73,21.19C638.35,21.19 638.96,21.19 639.58,21.19C640.2,21.19 640.82,21.19 641.44,21.19C642.06,21.19 642.67,21.19 643.29,21.19C643.91,21.19 644.53,21.19 645.15,21.19C645.77,21.19 646.38,21.19 647,21.19C647.62,21.19 648.24,21.19 648.86,21.19C649.48,21.19 650.09,21.19 650.71,21.19C651.33,21.19 651.95,21.19 652.57,21.19C653.19,21.19 653.81,21.19 654.43,21.19C655.05,21.19 655.66,21.19 656.28,21.19C656.9,21.19 657.52,21.19 658.14,21.19C658.76,21.19 659.37,21.19 659.99,21.19C660.61,21.19 661.23,21.19 661.85,21.19C662.47,21.19 663.08,21.19 663.7,21.19C664.32,21.19 664.94,21.19 665.56,21.19C666.18,21.19 666.79,21.19 667.41,21.19C668.03,21.19 668.65,21.19 669.27,21.19C669.89,21.19 670.5,21.19 671.12,21.19C671.74,21.19 672.36,21.19 672.98,21.19C673.6,21.19 674.22,21.19 674.84,21.19C675.46,21.19 676.07,21.19 676.69,21.19C677.31,21.19 677.93,21.19 678.55,21.19C679.17,21.19 679.78,21.19 680.4,21.19C681.02,21.19 681.64,21.19 682.26,21.19C682.88,21.19 683.49,21.19 684.11,21.19C684.73,21.19 685.35,21.19 685.97,21.19C686.59,21.19 687.2,21.19 687.82,21.19C688.44,21.19 689.06,21.19 689.68,21.19C690.3,21.19 690.91,21.19 691.53,21.19C692.15,21.19 692.77,21.19 693.39,21.19C694.01,21.19 694.63,21.19 695.25,21.19C695.87,21.19 696.48,21.19 697.1,21.19C697.72,21.19 698.34,21.19 698.96,21.19C699.58,21.19 700.19,21.19 700.81,21.19C701.43,21.19 702.05,21.19 702.67,21.19C703.29,21.19 703.9,21.19 704.52,21.19C705.14,21.19 705.76,21.19 706.38,21.19C707,21.19 707.61,21.19 708.23,21.19C708.85,21.19 709.47,21.19 710.09,21.19C710.71,21.19 711.32,21.19 711.94,21.19C712.56,21.19 713.18,21.19 713.8,21.19C714.42,21.19 715.04,21.19 715.66,21.19C716.28,21.19 716.89,21.19 717.51,21.19C718.13,21.19 718.75,21.19 719.37,21.19C719.99,21.19 720.6,21.19 721.22,21.19C721.84,21.19 722.46,21.19 723.08,21.19C723.7,21.19 724.31,21.19 724.93,21.19C725.55,21.19 726.17,21.19 726.79,21.19C727.41,21.19 728.02,21.19 728.64,21.19C729.26,21.19 729.88,21.19 730.5,21.19C731.12,21.19 731.74,21.19 732.36,21.19C732.98,21.19 733.59,21.19 734.21,21.19C734.83,21.19 735.45,21.19 736.07,21.19C736.69,21.19 737.3,21.19 737.92,21.19C738.54,21.19 739.16,21.19 739.78,21.19C740.4,21.19 741.01,21.19 741.63,21.19C742.25,21.19 742.87,21.19 743.49,21.19C744.11,21.19 744.72,21.19 745.34,21.19C745.96,21.19 746.58,21.19 747.2,21.19C747.82,21.19 748.43,21.19 749.05,21.19C749.67,21.19 750.29,21.19 750.91,21.19C751.53,21.19 752.15,21.19 752.77,21.19C753.39,21.19 754,21.19 754.62,21.19C755.24,21.19 755.86,21.19 756.48,21.19C757.1,21.19 757.71,21.19 758.33,21.19C758.95,21.19 759.57,21.19 760.19,21.19C760.81,21.19 761.42,21.19 762.04,21.19C762.66,21.19 763.28,21.19 763.9,21.19C764.52,21.19 765.13,21.19 765.75,21.19C766.37,21.19 766.99,21.19 767.61,21.19C768.23,21.19 768.84,21.19 769.46,21.19C770.08,21.19 770.7,21.19 771.32,21.19C771.94,21.19 772.56,21.19 773.18,21.19C773.8,21.19 774.41,21.19 775.03,21.19C775.65,21.19 776.27,21.19 776.89,21.19C777.51,21.19 778.12,21.19 778.74,21.19C779.36,21.19 779.98,21.19 780.6,21.19C781.22,21.19 781.83,21.19 782.45,21.19C783.07,21.19 783.69,21.19 784.31,21.19C784.93,21.19 785.54,21.19 786.16,21.19C786.78,21.19 787.4,21.19 788.02,21.19C788.64,21.19 789.25,21.19 789.87,21.19C790.49,21.19 791.11,21.19 791.73,21.19C792.35,21.19 792.97,21.19 793.59,21.19C794.21,21.19 794.82,21.19 795.44,21.19C796.06,21.19 796.68,21.19 797.3,21.19C797.92,21.19 798.53,21.19 799.15,21.19C799.77,21.19 800.39,21.19 801.01,21.19C801.63,21.19 802.24,21.19 802.86,21.19C803.48,21.19 804.1,21.19 804.72,21.19C805.34,21.19 805.95,21.19 806.57,21.19C807.19,21.19 807.81,21.19 808.43,21.19C809.05,21.19 809.67,21.19 810.29,21.19C810.91,21.19 811.52,21.19 812.14,21.19C812.76,21.19 813.38,21.19 814,21.19C814.62,21.19 815.23,21.19 815.85,21.19C816.47,21.19 817.09,21.19 817.71,21.19C818.33,21.19 818.94,21.19 819.56,21.19C820.18,21.19 820.8,21.19 821.42,21.19C822.04,21.19 822.65,21.19 823.27,21.19C823.89,21.19 824.51,21.19 825.13,21.19C825.75,21.19 826.36,21.19 826.98,21.19C827.6,21.19 828.22,21.19 828.84,21.19C829.46,21.19 830.08,21.19 830.7,21.19C831.32,21.19 831.93,21.19 832.55,21.19C833.17,21.19 833.79,21.19 834.41,21.19C835.03,21.19 835.64,21.19 836.26,21.19C836.88,21.19 837.5,21.19 838.12,21.19C838.74,21.19 839.35,21.19 839.97,21.19C840.59,21.19 841.21,21.19 841.83,21.19C842.45,21.19 843.06,21.19 843.68,21.19C844.3,21.19 844.92,21.19 845.54,21.19C846.16,21.19 846.77,21.19 847.39,21.19C848.01,21.19 848.63,21.19 849.25,21.19C849.87,21.19 850.49,21.19 851.11,21.19C851.73,21.19 852.34,21.19 852.96,21.19C853.58,21.19 854.2,21.19 854.82,21.19C855.44,21.19 856.05,21.19 856.67,21.19C857.29,21.19 857.91,21.19 858.53,21.19C859.15,21.19 859.76,21.19 860.38,21.19C861,21.19 861.62,21.19 862.24,21.19C862.86,21.19 863.47,21.19 864.09,21.19C864.71,21.19 865.33,21.19 865.95,21.19C866.57,21.19 867.18,21.19 867.8,21.19C868.42,21.19 869.04,21.19 869.66,21.19C870.28,21.19 870.9,21.19 871.52,21.19C872.14,21.19 872.75,21.19 873.37,21.19C873.99,21.19 874.61,21.19 875.23,21.19C875.85,21.19 876.46,21.19 877.08,21.19C877.7,21.19 878.32,21.19 878.94,21.19C879.56,21.19 880.17,21.19 880.79,21.19C881.41,21.19 882.03,21.19 882.65,21.19C883.27,21.19 883.88,21.19 884.5,21.19C885.12,21.19 885.74,21.19 886.36,21.19C886.98,21.19 887.59,21.19 888.21,21.19C888.83,21.19 889.45,21.19 890.07,21.19C890.69,21.19 891.31,21.19 891.93,21.19C892.55,21.19 893.16,21.19 893.78,21.19C894.4,21.19 895.02,21.19 895.64,21.19C896.26,21.19 896.87,21.19 897.49,21.19C898.11,21.19 898.73,21.19 899.35,21.19C899.97,21.19 900.58,21.19 901.2,21.19C901.82,21.19 902.44,21.19 903.06,21.19C903.68,21.19 904.29,21.19 904.91,21.19C905.53,21.19 906.15,21.19 906.77,21.19C907.39,21.19 908.01,21.19 908.63,21.19C909.25,21.19 909.86,21.19 910.48,21.19C911.1,21.19 911.72,21.19 912.34,21.19C912.96,21.19 913.57,21.19 914.19,21.19C914.81,21.19 915.43,21.19 916.05,21.19C916.67,21.19 917.28,21.19 917.9,21.19C918.52,21.19 919.14,21.19 919.76,21.19C920.38,21.19 920.99,21.19 921.61,21.19C922.23,21.19 922.85,21.19 923.47,21.19C924.09,21.19 924.7,21.19 925.32,21.19C925.94,21.19 926.56,21.19 927.18,21.19C927.8,21.19 928.42,21.19 929.04,21.19C929.66,21.19 930.27,21.19 930.89,21.19C931.51,21.19 932.13,21.19 932.75,21.19C933.37,21.19 933.98,21.19 934.6,21.19C935.22,21.19 935.84,21.19 936.46,21.19C937.08,21.19 937.69,21.19 938.31,21.19C938.93,21.19 939.55,21.19 940.17,21.19C940.79,21.19 941.4,21.19 942.02,21.19C942.64,21.19 943.26,21.19 943.88,21.19C944.5,21.19 945.11,21.19 945.73,21.19C946.35,21.19 946.97,21.19 947.59,21.19C948.21,21.19 948.83,21.19 949.45,21.19C950.07,21.19 950.68,21.19 951.3,21.19C951.92,21.19 952.54,21.19 953.16,21.19C953.78,21.19 954.39,21.19 955.01,21.19C955.63,21.19 956.25,21.19 956.87,21.19C957.49,21.19 958.1,21.19 958.72,21.19C959.34,21.19 959.96,21.19 960.58,21.19C961.2,21.19 961.81,21.19 962.43,21.19C963.05,21.19 963.67,21.19 964.29,21.19C964.91,21.19 965.52,21.19 966.14,21.19C966.76,21.19 967.38,21.19 968,21.19C968.62,21.19 969.24,21.19 969.86,21.19C970.48,21.19 971.09,21.19 971.71,21.19C972.33,21.19 972.95,21.19 973.57,21.19C974.19,21.19 974.8,21.19 975.42,21.19C976.04,21.19 976.66,21.19 977.28,21.19C977.9,21.19 978.51,21.19 979.13,21.19C979.75,21.19 980.37,21.19 980.99,21.19C981.61,21.19 982.22,21.19 982.84,21.19C983.46,21.19 984.08,21.18 984.7,21.18C985.32,21.18 985.93,21.18 986.55,21.17C987.17,21.16 987.79,21.15 988.41,21.13C989.03,21.1 989.65,21.08 990.27,21.02C990.89,20.96 991.51,20.89 992.12,20.76C992.74,20.62 993.37,20.46 993.98,20.21C994.61,19.94 995.24,19.61 995.83,19.18C996.48,18.72 997.1,18.13 997.69,17.49C998.34,16.78 998.94,15.94 999.54,15.09C1000.18,14.18 1000.78,13.15 1001.4,12.19C1002.02,11.23 1002.6,10.18 1003.25,9.31C1003.84,8.52 1004.43,7.66 1005.11,7.16C1005.69,6.74 1006.35,6.36 1006.97,6.36C1007.59,6.36 1008.25,6.74 1008.82,7.16C1009.5,7.66 1010.09,8.52 1010.68,9.31C1011.33,10.18 1011.91,11.23 1012.53,12.19C1013.15,13.15 1013.75,14.18 1014.39,15.09C1014.99,15.94 1015.59,16.78 1016.24,17.49Q1016.83,18.13 1018.1,19.18L1018.1,23.19Q1016.83,24.25 1016.24,24.89C1015.59,25.59 1014.99,26.43 1014.39,27.28C1013.75,28.19 1013.15,29.22 1012.53,30.18C1011.91,31.14 1011.33,32.19 1010.68,33.06C1010.09,33.85 1009.5,34.72 1008.82,35.22C1008.25,35.64 1007.59,36.02 1006.97,36.02C1006.35,36.02 1005.69,35.64 1005.11,35.22C1004.43,34.72 1003.84,33.85 1003.25,33.06C1002.6,32.19 1002.02,31.14 1001.4,30.18C1000.78,29.22 1000.18,28.19 999.54,27.28C998.94,26.43 998.34,25.59 997.69,24.89C997.1,24.25 996.48,23.66 995.83,23.19C995.24,22.76 994.61,22.43 993.98,22.16C993.37,21.91 992.74,21.75 992.12,21.61C991.51,21.48 990.89,21.41 990.27,21.35C989.65,21.29 989.03,21.26 988.41,21.24C987.79,21.22 987.17,21.22 986.55,21.21C985.93,21.2 985.32,21.19 984.7,21.19C984.08,21.19 983.46,21.19 982.84,21.19C982.22,21.19 981.61,21.19 980.99,21.19C980.37,21.19 979.75,21.19 979.13,21.19C978.51,21.19 977.9,21.19 977.28,21.19C976.66,21.19 976.04,21.19 975.42,21.19C974.8,21.19 974.19,21.19 973.57,21.19C972.95,21.19 972.33,21.19 971.71,21.19C971.09,21.19 970.48,21.19 969.86,21.19C969.24,21.19 968.62,21.19 968,21.19C967.38,21.19 966.76,21.19 966.14,21.19C965.52,21.19 964.91,21.19 964.29,21.19C963.67,21.19 963.05,21.19 962.43,21.19C961.81,21.19 961.2,21.19 960.58,21.19C959.96,21.19 959.34,21.19 958.72,21.19C958.1,21.19 957.49,21.19 956.87,21.19C956.25,21.19 955.63,21.19 955.01,21.19C954.39,21.19 953.78,21.19 953.16,21.19C952.54,21.19 951.92,21.19 951.3,21.19C950.68,21.19 950.07,21.19 949.45,21.19C948.83,21.19 948.21,21.19 947.59,21.19C946.97,21.19 946.35,21.19 945.73,21.19C945.11,21.19 944.5,21.19 943.88,21.19C943.26,21.19 942.64,21.19 942.02,21.19C941.4,21.19 940.79,21.19 940.17,21.19C939.55,21.19 938.93,21.19 938.31,21.19C937.69,21.19 937.08,21.19 936.46,21.19C935.84,21.19 935.22,21.19 934.6,21.19C933.98,21.19 933.37,21.19 932.75,21.19C932.13,21.19 931.51,21.19 930.89,21.19C930.27,21.19 929.66,21.19 929.04,21.19C928.42,21.19 927.8,21.19 927.18,21.19C926.56,21.19 925.94,21.19 925.32,21.19C924.7,21.19 924.09,21.19 923.47,21.19C922.85,21.19 922.23,21.19 921.61,21.19C920.99,21.19 920.38,21.19 919.76,21.19C919.14,21.19 918.52,21.19 917.9,21.19C917.28,21.19 916.67,21.19 916.05,21.19C915.43,21.19 914.81,21.19 914.19,21.19C913.57,21.19 912.96,21.19 912.34,21.19C911.72,21.19 911.1,21.19 910.48,21.19C909.86,21.19 909.25,21.19 908.63,21.19C908.01,21.19 907.39,21.19 906.77,21.19C906.15,21.19 905.53,21.19 904.91,21.19C904.29,21.19 903.68,21.19 903.06,21.19C902.44,21.19 901.82,21.19 901.2,21.19C900.58,21.19 899.97,21.19 899.35,21.19C898.73,21.19 898.11,21.19 897.49,21.19C896.87,21.19 896.26,21.19 895.64,21.19C895.02,21.19 894.4,21.19 893.78,21.19C893.16,21.19 892.55,21.19 891.93,21.19C891.31,21.19 890.69,21.19 890.07,21.19C889.45,21.19 888.83,21.19 888.21,21.19C887.59,21.19 886.98,21.19 886.36,21.19C885.74,21.19 885.12,21.19 884.5,21.19C883.88,21.19 883.27,21.19 882.65,21.19C882.03,21.19 881.41,21.19 880.79,21.19C880.17,21.19 879.56,21.19 878.94,21.19C878.32,21.19 877.7,21.19 877.08,21.19C876.46,21.19 875.85,21.19 875.23,21.19C874.61,21.19 873.99,21.19 873.37,21.19C872.75,21.19 872.14,21.19 871.52,21.19C870.9,21.19 870.28,21.19 869.66,21.19C869.04,21.19 868.42,21.19 867.8,21.19C867.18,21.19 866.57,21.19 865.95,21.19C865.33,21.19 864.71,21.19 864.09,21.19C863.47,21.19 862.86,21.19 862.24,21.19C861.62,21.19 861,21.19 860.38,21.19C859.76,21.19 859.15,21.19 858.53,21.19C857.91,21.19 857.29,21.19 856.67,21.19C856.05,21.19 855.44,21.19 854.82,21.19C854.2,21.19 853.58,21.19 852.96,21.19C852.34,21.19 851.73,21.19 851.11,21.19C850.49,21.19 849.87,21.19 849.25,21.19C848.63,21.19 848.01,21.19 847.39,21.19C846.77,21.19 846.16,21.19 845.54,21.19C844.92,21.19 844.3,21.19 843.68,21.19C843.06,21.19 842.45,21.19 841.83,21.19C841.21,21.19 840.59,21.19 839.97,21.19C839.35,21.19 838.74,21.19 838.12,21.19C837.5,21.19 836.88,21.19 836.26,21.19C835.64,21.19 835.03,21.19 834.41,21.19C833.79,21.19 833.17,21.19 832.55,21.19C831.93,21.19 831.32,21.19 830.7,21.19C830.08,21.19 829.46,21.19 828.84,21.19C828.22,21.19 827.6,21.19 826.98,21.19C826.36,21.19 825.75,21.19 825.13,21.19C824.51,21.19 823.89,21.19 823.27,21.19C822.65,21.19 822.04,21.19 821.42,21.19C820.8,21.19 820.18,21.19 819.56,21.19C818.94,21.19 818.33,21.19 817.71,21.19C817.09,21.19 816.47,21.19 815.85,21.19C815.23,21.19 814.62,21.19 814,21.19C813.38,21.19 812.76,21.19 812.14,21.19C811.52,21.19 810.91,21.19 810.29,21.19C809.67,21.19 809.05,21.19 808.43,21.19C807.81,21.19 807.19,21.19 806.57,21.19C805.95,21.19 805.34,21.19 804.72,21.19C804.1,21.19 803.48,21.19 802.86,21.19C802.24,21.19 801.63,21.19 801.01,21.19C800.39,21.19 799.77,21.19 799.15,21.19C798.53,21.19 797.92,21.19 797.3,21.19C796.68,21.19 796.06,21.19 795.44,21.19C794.82,21.19 794.21,21.19 793.59,21.19C792.97,21.19 792.35,21.19 791.73,21.19C791.11,21.19 790.49,21.19 789.87,21.19C789.25,21.19 788.64,21.19 788.02,21.19C787.4,21.19 786.78,21.19 786.16,21.19C785.54,21.19 784.93,21.19 784.31,21.19C783.69,21.19 783.07,21.19 782.45,21.19C781.83,21.19 781.22,21.19 780.6,21.19C779.98,21.19 779.36,21.19 778.74,21.19C778.12,21.19 777.51,21.19 776.89,21.19C776.27,21.19 775.65,21.19 775.03,21.19C774.41,21.19 773.8,21.19 773.18,21.19C772.56,21.19 771.94,21.19 771.32,21.19C770.7,21.19 770.08,21.19 769.46,21.19C768.84,21.19 768.23,21.19 767.61,21.19C766.99,21.19 766.37,21.19 765.75,21.19C765.13,21.19 764.52,21.19 763.9,21.19C763.28,21.19 762.66,21.19 762.04,21.19C761.42,21.19 760.81,21.19 760.19,21.19C759.57,21.19 758.95,21.19 758.33,21.19C757.71,21.19 757.1,21.19 756.48,21.19C755.86,21.19 755.24,21.19 754.62,21.19C754,21.19 753.39,21.19 752.77,21.19C752.15,21.19 751.53,21.19 750.91,21.19C750.29,21.19 749.67,21.19 749.05,21.19C748.43,21.19 747.82,21.19 747.2,21.19C746.58,21.19 745.96,21.19 745.34,21.19C744.72,21.19 744.11,21.19 743.49,21.19C742.87,21.19 742.25,21.19 741.63,21.19C741.01,21.19 740.4,21.19 739.78,21.19C739.16,21.19 738.54,21.19 737.92,21.19C737.3,21.19 736.69,21.19 736.07,21.19C735.45,21.19 734.83,21.19 734.21,21.19C733.59,21.19 732.98,21.19 732.36,21.19C731.74,21.19 731.12,21.19 730.5,21.19C729.88,21.19 729.26,21.19 728.64,21.19C728.02,21.19 727.41,21.19 726.79,21.19C726.17,21.19 725.55,21.19 724.93,21.19C724.31,21.19 723.7,21.19 723.08,21.19C722.46,21.19 721.84,21.19 721.22,21.19C720.6,21.19 719.99,21.19 719.37,21.19C718.75,21.19 718.13,21.19 717.51,21.19C716.89,21.19 716.28,21.19 715.66,21.19C715.04,21.19 714.42,21.19 713.8,21.19C713.18,21.19 712.56,21.19 711.94,21.19C711.32,21.19 710.71,21.19 710.09,21.19C709.47,21.19 708.85,21.19 708.23,21.19C707.61,21.19 707,21.19 706.38,21.19C705.76,21.19 705.14,21.19 704.52,21.19C703.9,21.19 703.29,21.19 702.67,21.19C702.05,21.19 701.43,21.19 700.81,21.19C700.19,21.19 699.58,21.19 698.96,21.19C698.34,21.19 697.72,21.19 697.1,21.19C696.48,21.19 695.87,21.19 695.25,21.19C694.63,21.19 694.01,21.19 693.39,21.19C692.77,21.19 692.15,21.19 691.53,21.19C690.91,21.19 690.3,21.19 689.68,21.19C689.06,21.19 688.44,21.19 687.82,21.19C687.2,21.19 686.59,21.19 685.97,21.19C685.35,21.19 684.73,21.19 684.11,21.19C683.49,21.19 682.88,21.19 682.26,21.19C681.64,21.19 681.02,21.19 680.4,21.19C679.78,21.19 679.17,21.19 678.55,21.19C677.93,21.19 677.31,21.19 676.69,21.19C676.07,21.19 675.46,21.19 674.84,21.19C674.22,21.19 673.6,21.19 672.98,21.19C672.36,21.19 671.74,21.19 671.12,21.19C670.5,21.19 669.89,21.19 669.27,21.19C668.65,21.19 668.03,21.19 667.41,21.19C666.79,21.19 666.18,21.19 665.56,21.19C664.94,21.19 664.32,21.19 663.7,21.19C663.08,21.19 662.47,21.19 661.85,21.19C661.23,21.19 660.61,21.19 659.99,21.19C659.37,21.19 658.76,21.19 658.14,21.19C657.52,21.19 656.9,21.19 656.28,21.19C655.66,21.19 655.05,21.19 654.43,21.19C653.81,21.19 653.19,21.19 652.57,21.19C651.95,21.19 651.33,21.19 650.71,21.19C650.09,21.19 649.48,21.19 648.86,21.19C648.24,21.19 647.62,21.19 647,21.19C646.38,21.19 645.77,21.19 645.15,21.19C644.53,21.19 643.91,21.19 643.29,21.19C642.67,21.19 642.06,21.19 641.44,21.19C640.82,21.19 640.2,21.19 639.58,21.19C638.96,21.19 638.35,21.19 637.73,21.19C637.11,21.19 636.49,21.19 635.87,21.19C635.25,21.19 634.64,21.19 634.02,21.19C633.4,21.19 632.78,21.19 632.16,21.19C631.54,21.19 630.92,21.19 630.3,21.19C629.68,21.19 629.07,21.19 628.45,21.19C627.83,21.19 627.21,21.19 626.59,21.19C625.97,21.19 625.36,21.19 624.74,21.19C624.12,21.19 623.5,21.19 622.88,21.19C622.26,21.19 621.65,21.19 621.03,21.19C620.41,21.19 619.79,21.19 619.17,21.19C618.55,21.19 617.94,21.19 617.32,21.19C616.7,21.19 616.08,21.19 615.46,21.19C614.84,21.19 614.22,21.19 613.6,21.19C612.98,21.19 612.37,21.19 611.75,21.19C611.13,21.19 610.51,21.19 609.89,21.19C609.27,21.19 608.66,21.19 608.04,21.19C607.42,21.19 606.8,21.19 606.18,21.19C605.56,21.19 604.95,21.19 604.33,21.19C603.71,21.19 603.09,21.19 602.47,21.19C601.85,21.19 601.24,21.19 600.62,21.19C600,21.19 599.38,21.19 598.76,21.19C598.14,21.19 597.53,21.19 596.91,21.19C596.29,21.19 595.67,21.19 595.05,21.19C594.43,21.19 593.81,21.19 593.19,21.19C592.57,21.19 591.96,21.19 591.34,21.19C590.72,21.19 590.1,21.19 589.48,21.19C588.86,21.19 588.25,21.19 587.63,21.19C587.01,21.19 586.39,21.19 585.77,21.19C585.15,21.19 584.54,21.19 583.92,21.19C583.3,21.19 582.68,21.19 582.06,21.19C581.44,21.19 580.83,21.19 580.21,21.19C579.59,21.19 578.97,21.19 578.35,21.19C577.73,21.19 577.12,21.19 576.5,21.19C575.88,21.19 575.26,21.19 574.64,21.19C574.02,21.19 573.4,21.19 572.78,21.19C572.16,21.19 571.55,21.19 570.93,21.19C570.31,21.19 569.69,21.19 569.07,21.19C568.45,21.19 567.84,21.19 567.22,21.19C566.6,21.19 565.98,21.19 565.36,21.19C564.74,21.19 564.13,21.19 563.51,21.19C562.89,21.19 562.27,21.19 561.65,21.19C561.03,21.19 560.42,21.19 559.8,21.19C559.18,21.19 558.56,21.19 557.94,21.19C557.32,21.19 556.71,21.19 556.09,21.19C555.47,21.19 554.85,21.19 554.23,21.19C553.61,21.19 552.99,21.19 552.37,21.19C551.75,21.19 551.14,21.19 550.52,21.19C549.9,21.19 549.28,21.19 548.66,21.19C548.04,21.19 547.43,21.19 546.81,21.19C546.19,21.19 545.57,21.19 544.95,21.19C544.33,21.19 543.72,21.19 543.1,21.19C542.48,21.19 541.86,21.19 541.24,21.19C540.62,21.19 540.01,21.19 539.39,21.19C538.77,21.19 538.15,21.19 537.53,21.19C536.91,21.19 536.3,21.19 535.68,21.19C535.06,21.19 534.44,21.19 533.82,21.19C533.2,21.19 532.58,21.19 531.96,21.19C531.34,21.19 530.73,21.19 530.11,21.19C529.49,21.19 528.87,21.19 528.25,21.19C527.63,21.19 527.02,21.19 526.4,21.19C525.78,21.19 525.16,21.19 524.54,21.19C523.92,21.19 523.31,21.19 522.69,21.19C522.07,21.19 521.45,21.19 520.83,21.19C520.21,21.19 519.6,21.19 518.98,21.19C518.36,21.19 517.74,21.19 517.12,21.19C516.5,21.19 515.88,21.19 515.26,21.19C514.64,21.19 514.03,21.19 513.41,21.19C512.79,21.19 512.17,21.19 511.55,21.19C510.93,21.19 510.32,21.19 509.7,21.19C509.08,21.19 508.46,21.19 507.84,21.19C507.22,21.19 506.61,21.19 505.99,21.19C505.37,21.19 504.75,21.19 504.13,21.19C503.51,21.19 502.9,21.19 502.28,21.19C501.66,21.19 501.04,21.19 500.42,21.19C499.8,21.19 499.19,21.19 498.57,21.19C497.95,21.19 497.33,21.19 496.71,21.19C496.09,21.19 495.47,21.19 494.85,21.19C494.23,21.19 493.62,21.19 493,21.19C492.38,21.19 491.76,21.19 491.14,21.19C490.52,21.19 489.91,21.19 489.29,21.19C488.67,21.19 488.05,21.19 487.43,21.19C486.81,21.19 486.2,21.19 485.58,21.19C484.96,21.19 484.34,21.19 483.72,21.19C483.1,21.19 482.49,21.19 481.87,21.19C481.25,21.19 480.63,21.19 480.01,21.19C479.39,21.19 478.78,21.19 478.16,21.19C477.54,21.19 476.92,21.19 476.3,21.19C475.68,21.19 475.06,21.19 474.44,21.19C473.82,21.19 473.21,21.19 472.59,21.19C471.97,21.19 471.35,21.19 470.73,21.19C470.11,21.19 469.5,21.19 468.88,21.19C468.26,21.19 467.64,21.2 467.02,21.21C466.4,21.22 465.79,21.22 465.17,21.23C464.55,21.24 463.93,21.27 463.31,21.3C462.69,21.33 462.08,21.36 461.46,21.41C460.84,21.46 460.22,21.52 459.6,21.6C458.98,21.67 458.37,21.76 457.75,21.86C457.13,21.96 456.51,22.08 455.89,22.19C455.27,22.3 454.65,22.42 454.03,22.51C453.41,22.6 452.8,22.69 452.18,22.75C451.56,22.8 450.94,22.84 450.32,22.84C449.7,22.84 449.09,22.8 448.47,22.75C447.85,22.69 447.23,22.6 446.61,22.51C445.99,22.42 445.38,22.3 444.76,22.19C444.14,22.08 443.52,21.96 442.9,21.86C442.28,21.76 441.67,21.67 441.05,21.6Q440.43,21.52 439.19,21.41Z" style="vector-effect: none; stroke-width: 0px; stroke: rgb(67, 67, 72); stroke-opacity: 1; fill: rgb(153, 153, 153); fill-opacity: 1;"/><path class="box" d="M1006.97,24.9V17.48M1006.97,24.9V17.48H1006.97V24.9ZM1006.97,21.19H1006.97M1006.97,21.19H1006.97" style="vector-effect: non-scaling-stroke; stroke-width: 0px; stroke: rgb(67, 67, 72); stroke-opacity: 1; fill: rgb(153, 153, 153); fill-opacity: 1;"/><path class="mean" d="M951.3,24.9V17.48" style="fill: none; vector-effect: non-scaling-stroke; stroke-width: 0px; stroke-dasharray: 0px, 0px; stroke: rgb(67, 67, 72); stroke-opacity: 1;"/></g></g><g class="scatterlayer mlayer"><g class="trace scatter tracee78006" style="stroke-miterlimit: 2; opacity: 1;"><g class="fills"/><g class="errorbars"/><g class="lines"/><g class="points"><path class="point" transform="translate(1006.97,21.19)" d="M2,0A2,2 0 1,1 0,-2A2,2 0 0,1 2,0Z" style="opacity: 1; stroke-width: 0px; fill: rgb(11, 121, 230); fill-opacity: 1;"/></g><g class="text"/></g><g class="trace scatter trace88ac4e" style="stroke-miterlimit: 2; opacity: 1;"><g class="fills"/><g class="errorbars"/><g class="lines"/><g class="points"><path class="point" transform="translate(450.32,21.19)" d="M2,0A2,2 0 1,1 0,-2A2,2 0 0,1 2,0Z" style="opacity: 1; stroke-width: 0px; fill: rgb(11, 121, 230); fill-opacity: 1;"/></g><g class="text"/></g><g class="trace scatter trace361571" style="stroke-miterlimit: 2; opacity: 1;"><g class="fills"/><g class="errorbars"/><g class="lines"/><g class="points"><path class="point" transform="translate(1006.97,21.19)" d="M2,0A2,2 0 1,1 0,-2A2,2 0 0,1 2,0Z" style="opacity: 1; stroke-width: 0px; fill: rgb(11, 121, 230); fill-opacity: 1;"/></g><g class="text"/></g><g class="trace scatter trace9db17b" style="stroke-miterlimit: 2; opacity: 1;"><g class="fills"/><g class="errorbars"/><g class="lines"/><g class="points"><path class="point" transform="translate(1006.97,21.19)" d="M2,0A2,2 0 1,1 0,-2A2,2 0 0,1 2,0Z" style="opacity: 1; stroke-width: 0px; fill: rgb(11, 121, 230); fill-opacity: 1;"/></g><g class="text"/></g><g class="trace scatter trace86ad0c" style="stroke-miterlimit: 2; opacity: 1;"><g class="fills"/><g class="errorbars"/><g class="lines"/><g class="points"><path class="point" transform="translate(1006.97,21.19)" d="M2,0A2,2 0 1,1 0,-2A2,2 0 0,1 2,0Z" style="opacity: 1; stroke-width: 0px; fill: rgb(11, 121, 230); fill-opacity: 1;"/></g><g class="text"/></g><g class="trace scatter tracea0717a" style="stroke-miterlimit: 2; opacity: 1;"><g class="fills"/><g class="errorbars"/><g class="lines"/><g class="points"><path class="point" transform="translate(1006.97,21.19)" d="M2,0A2,2 0 1,1 0,-2A2,2 0 0,1 2,0Z" style="opacity: 1; stroke-width: 0px; fill: rgb(11, 121, 230); fill-opacity: 1;"/></g><g class="text"/></g><g class="trace scatter tracedbd6b0" style="stroke-miterlimit: 2; opacity: 1;"><g class="fills"/><g class="errorbars"/><g class="lines"/><g class="points"><path class="point" transform="translate(1006.97,21.19)" d="M2,0A2,2 0 1,1 0,-2A2,2 0 0,1 2,0Z" style="opacity: 1; stroke-width: 0px; fill: rgb(11, 121, 230); fill-opacity: 1;"/></g><g class="text"/></g><g class="trace scatter trace7a07b6" style="stroke-miterlimit: 2; opacity: 1;"><g class="fills"/><g class="errorbars"/><g class="lines"/><g class="points"><path class="point" transform="translate(1006.97,21.19)" d="M2,0A2,2 0 1,1 0,-2A2,2 0 0,1 2,0Z" style="opacity: 1; stroke-width: 0px; fill: rgb(11, 121, 230); fill-opacity: 1;"/></g><g class="text"/></g><g class="trace scatter tracea6a9fe" style="stroke-miterlimit: 2; opacity: 1;"><g class="fills"/><g class="errorbars"/><g class="lines"/><g class="points"><path class="point" transform="translate(1006.97,21.19)" d="M2,0A2,2 0 1,1 0,-2A2,2 0 0,1 2,0Z" style="opacity: 1; stroke-width: 0px; fill: rgb(11, 121, 230); fill-opacity: 1;"/></g><g class="text"/></g><g class="trace scatter trace72dac0" style="stroke-miterlimit: 2; opacity: 1;"><g class="fills"/><g class="errorbars"/><g class="lines"/><g class="points"><path class="point" transform="translate(1006.97,21.19)" d="M2,0A2,2 0 1,1 0,-2A2,2 0 0,1 2,0Z" style="opacity: 1; stroke-width: 0px; fill: rgb(11, 121, 230); fill-opacity: 1;"/></g><g class="text"/></g></g></g></g><g class="zerolinelayer-above"/><path class="xlines-above crisp" d="M0,0" style="fill: none;"/><path class="ylines-above crisp" d="M0,0" style="fill: none;"/><g class="overlines-above"/><g class="xaxislayer-above"><g class="x2tick"><text text-anchor="middle" x="0" y="173" transform="translate(78.01,0)" style="font-family: system-ui, -apple-system, 'Segoe UI', Roboto, 'Helvetica Neue', 'Noto Sans', 'Liberation Sans', Arial, sans-serif, 'Apple Color Emoji', 'Segoe UI Emoji', 'Segoe UI Symbol', 'Noto Color Emoji'; font-size: 9px; fill: rgb(0, 0, 0); fill-opacity: 0.5; white-space: pre;">0</text></g><g class="x2tick"><text text-anchor="middle" x="0" y="173" style="font-family: system-ui, -apple-system, 'Segoe UI', Roboto, 'Helvetica Neue', 'Noto Sans', 'Liberation Sans', Arial, sans-serif, 'Apple Color Emoji', 'Segoe UI Emoji', 'Segoe UI Symbol', 'Noto Color Emoji'; font-size: 9px; fill: rgb(0, 0, 0); fill-opacity: 0.5; white-space: pre;" transform="translate(189.34,0)">1</text></g><g class="x2tick"><text text-anchor="middle" x="0" y="173" style="font-family: system-ui, -apple-system, 'Segoe UI', Roboto, 'Helvetica Neue', 'Noto Sans', 'Liberation Sans', Arial, sans-serif, 'Apple Color Emoji', 'Segoe UI Emoji', 'Segoe UI Symbol', 'Noto Color Emoji'; font-size: 9px; fill: rgb(0, 0, 0); fill-opacity: 0.5; white-space: pre;" transform="translate(300.66999999999996,0)">2</text></g><g class="x2tick"><text text-anchor="middle" x="0" y="173" style="font-family: system-ui, -apple-system, 'Segoe UI', Roboto, 'Helvetica Neue', 'Noto Sans', 'Liberation Sans', Arial, sans-serif, 'Apple Color Emoji', 'Segoe UI Emoji', 'Segoe UI Symbol', 'Noto Color Emoji'; font-size: 9px; fill: rgb(0, 0, 0); fill-opacity: 0.5; white-space: pre;" transform="translate(411.99,0)">3</text></g><g class="x2tick"><text text-anchor="middle" x="0" y="173" style="font-family: system-ui, -apple-system, 'Segoe UI', Roboto, 'Helvetica Neue', 'Noto Sans', 'Liberation Sans', Arial, sans-serif, 'Apple Color Emoji', 'Segoe UI Emoji', 'Segoe UI Symbol', 'Noto Color Emoji'; font-size: 9px; fill: rgb(0, 0, 0); fill-opacity: 0.5; white-space: pre;" transform="translate(523.3199999999999,0)">4</text></g><g class="x2tick"><text text-anchor="middle" x="0" y="173" style="font-family: system-ui, -apple-system, 'Segoe UI', Roboto, 'Helvetica Neue', 'Noto Sans', 'Liberation Sans', Arial, sans-serif, 'Apple Color Emoji', 'Segoe UI Emoji', 'Segoe UI Symbol', 'Noto Color Emoji'; font-size: 9px; fill: rgb(0, 0, 0); fill-opacity: 0.5; white-space: pre;" transform="translate(634.65,0)">5</text></g><g class="x2tick"><text text-anchor="middle" x="0" y="173" style="font-family: system-ui, -apple-system, 'Segoe UI', Roboto, 'Helvetica Neue', 'Noto Sans', 'Liberation Sans', Arial, sans-serif, 'Apple Color Emoji', 'Segoe UI Emoji', 'Segoe UI Symbol', 'Noto Color Emoji'; font-size: 9px; fill: rgb(0, 0, 0); fill-opacity: 0.5; white-space: pre;" transform="translate(745.98,0)">6</text></g><g class="x2tick"><text text-anchor="middle" x="0" y="173" style="font-family: system-ui, -apple-system, 'Segoe UI', Roboto, 'Helvetica Neue', 'Noto Sans', 'Liberation Sans', Arial, sans-serif, 'Apple Color Emoji', 'Segoe UI Emoji', 'Segoe UI Symbol', 'Noto Color Emoji'; font-size: 9px; fill: rgb(0, 0, 0); fill-opacity: 0.5; white-space: pre;" transform="translate(857.31,0)">7</text></g><g class="x2tick"><text text-anchor="middle" x="0" y="173" style="font-family: system-ui, -apple-system, 'Segoe UI', Roboto, 'Helvetica Neue', 'Noto Sans', 'Liberation Sans', Arial, sans-serif, 'Apple Color Emoji', 'Segoe UI Emoji', 'Segoe UI Symbol', 'Noto Color Emoji'; font-size: 9px; fill: rgb(0, 0, 0); fill-opacity: 0.5; white-space: pre;" transform="translate(968.64,0)">8</text></g><g class="x2tick"><text text-anchor="middle" x="0" y="173" style="font-family: system-ui, -apple-system, 'Segoe UI', Roboto, 'Helvetica Neue', 'Noto Sans', 'Liberation Sans', Arial, sans-serif, 'Apple Color Emoji', 'Segoe UI Emoji', 'Segoe UI Symbol', 'Noto Color Emoji'; font-size: 9px; fill: rgb(0, 0, 0); fill-opacity: 0.5; white-space: pre;" transform="translate(1079.97,0)">9</text></g></g><g class="yaxislayer-above"><g class="y2tick"><text text-anchor="end" x="72" y="3.15" transform="translate(0,141.815)" style="font-family: system-ui, -apple-system, 'Segoe UI', Roboto, 'Helvetica Neue', 'Noto Sans', 'Liberation Sans', Arial, sans-serif, 'Apple Color Emoji', 'Segoe UI Emoji', 'Segoe UI Symbol', 'Noto Color Emoji'; font-size: 9px; fill: rgb(0, 0, 0); fill-opacity: 0.5; white-space: pre;">Poses  </text></g></g><g class="overaxes-above"/></g></g><g class="polarlayer"/><g class="smithlayer"/><g class="ternarylayer"/><g class="geolayer"/><g class="funnelarealayer"/><g class="pielayer"/><g class="iciclelayer"/><g class="treemaplayer"/><g class="sunburstlayer"/><g class="glimages"/><defs id="topdefs-9fe9e9"><g class="clips"/></defs><g class="layer-above"><g class="imagelayer"/><g class="shapelayer"/></g><g class="infolayer"><g class="g-gtitle"><text class="gtitle" x="550" y="25" text-anchor="middle" dy="0em" style="opacity: 1; font-family: system-ui, -apple-system, 'Segoe UI', Roboto, 'Helvetica Neue', 'Noto Sans', 'Liberation Sans', Arial, sans-serif, 'Apple Color Emoji', 'Segoe UI Emoji', 'Segoe UI Symbol', 'Noto Color Emoji'; font-size: 20px; fill: rgb(60, 60, 60); fill-opacity: 1; white-space: pre;"><tspan class="line" dy="0em" x="550" y="25">Docking Results</tspan><tspan class="line" dy="1.3em" x="550" y="25">​<tspan style="font-size:70%" dy="-0.6em">10 samples</tspan><tspan dy="0.42em">​</tspan></tspan></text></g><g class="g-xtitle"/><g class="g-x2title"/><g class="g-ytitle"/><g class="g-y2title"/></g></svg>